<svg width="19" height="18" viewBox="0 0 19 18" fill="none" xmlns="http://www.w3.org/2000/svg">
<path d="M16.4675 13.4876L15.7368 9.34498C15.7258 9.27983 15.664 9.23306 15.5931 9.23306H10.8376C10.7667 9.23306 10.7049 9.27983 10.694 9.34498L9.96319 13.4876C9.96138 13.4943 9.96138 13.5026 9.96138 13.5093C9.96138 13.5828 10.0268 13.643 10.1068 13.643H16.3239C16.3312 13.643 16.3403 13.643 16.3476 13.6413C16.4257 13.6296 16.4803 13.5611 16.4675 13.4876ZM7.91991 9.34498C7.909 9.27983 7.84719 9.23306 7.7763 9.23306H3.02075C2.94985 9.23306 2.88804 9.27983 2.87713 9.34498L2.14635 13.4876C2.14453 13.4943 2.14453 13.5026 2.14453 13.5093C2.14453 13.5828 2.20997 13.643 2.28996 13.643H8.50708C8.51435 13.643 8.52344 13.643 8.53071 13.6413C8.6107 13.6296 8.66342 13.5611 8.65069 13.4876L7.91991 9.34498ZM6.21656 7.89672H12.4337C12.441 7.89672 12.45 7.89672 12.4573 7.89505C12.5373 7.88336 12.59 7.81487 12.5773 7.74137L11.8465 3.59873C11.8356 3.53359 11.7738 3.48682 11.7029 3.48682H6.94735C6.87645 3.48682 6.81464 3.53359 6.80373 3.59873L6.07295 7.74137C6.07113 7.74805 6.07113 7.75641 6.07113 7.76309C6.07113 7.83659 6.13658 7.89672 6.21656 7.89672Z" fill="#FF6900"/>
</svg>
