<svg width="19" height="18" viewBox="0 0 19 18" fill="none" xmlns="http://www.w3.org/2000/svg">
<path d="M4.76237 15.0612C4.11382 15.0612 3.56256 14.8559 3.10858 14.4452C2.65459 14.0345 2.4276 13.5359 2.4276 12.9492C1.99956 12.9492 1.63326 12.8115 1.32871 12.536C1.02363 12.26 0.871094 11.9285 0.871094 11.5413V5.20545C0.871094 4.81826 1.02363 4.48692 1.32871 4.21143C1.63326 3.93547 1.99956 3.79749 2.4276 3.79749H11.7667C12.1947 3.79749 12.5613 3.93547 12.8663 4.21143C13.1709 4.48692 13.3232 4.81826 13.3232 5.20545V6.61341H15.2688C15.3985 6.61341 15.5153 6.63688 15.619 6.68381C15.7228 6.73074 15.8136 6.80114 15.8914 6.895L17.837 9.23574C17.8889 9.29441 17.9278 9.35894 17.9538 9.42934C17.9797 9.49973 17.9927 9.576 17.9927 9.65813V12.2453C17.9927 12.4447 17.918 12.6118 17.7686 12.7465C17.6197 12.8817 17.4349 12.9492 17.2144 12.9492H16.4362C16.4362 13.5359 16.2092 14.0345 15.7552 14.4452C15.3012 14.8559 14.75 15.0612 14.1014 15.0612C13.4529 15.0612 12.9016 14.8559 12.4476 14.4452C11.9937 14.0345 11.7667 13.5359 11.7667 12.9492H7.09713C7.09713 13.5359 6.87014 14.0345 6.41616 14.4452C5.96218 14.8559 5.41091 15.0612 4.76237 15.0612ZM4.76237 13.6532C4.98287 13.6532 5.16784 13.5856 5.31726 13.4505C5.46617 13.3158 5.54062 13.1487 5.54062 12.9492C5.54062 12.7498 5.46617 12.5827 5.31726 12.448C5.16784 12.3128 4.98287 12.2453 4.76237 12.2453C4.54186 12.2453 4.3569 12.3128 4.20747 12.448C4.05857 12.5827 3.98411 12.7498 3.98411 12.9492C3.98411 13.1487 4.05857 13.3158 4.20747 13.4505C4.3569 13.5856 4.54186 13.6532 4.76237 13.6532ZM2.4276 5.20545V11.5413H3.05021C3.27071 11.3301 3.52365 11.16 3.80901 11.0309C4.09437 10.9018 4.41215 10.8373 4.76237 10.8373C5.11258 10.8373 5.43037 10.9018 5.71573 11.0309C6.00109 11.16 6.25402 11.3301 6.47453 11.5413H11.7667V5.20545H2.4276ZM14.1014 13.6532C14.3219 13.6532 14.5066 13.5856 14.6555 13.4505C14.805 13.3158 14.8797 13.1487 14.8797 12.9492C14.8797 12.7498 14.805 12.5827 14.6555 12.448C14.5066 12.3128 14.3219 12.2453 14.1014 12.2453C13.8809 12.2453 13.6962 12.3128 13.5473 12.448C13.3979 12.5827 13.3232 12.7498 13.3232 12.9492C13.3232 13.1487 13.3979 13.3158 13.5473 13.4505C13.6962 13.5856 13.8809 13.6532 14.1014 13.6532ZM13.3232 10.1333H16.6308L14.8797 8.02137H13.3232V10.1333Z" fill="#FF6900"/>
</svg>
