<svg width="19" height="17" viewBox="0 0 19 17" fill="none" xmlns="http://www.w3.org/2000/svg">
<path d="M1.85938 8.49997C1.86331 7.5971 2.06391 6.70399 2.44947 5.87275C2.83503 5.0415 3.39783 4.28875 4.10504 3.65843C4.81225 3.02811 5.6497 2.53284 6.56854 2.2015C7.48738 1.87016 8.46921 1.7094 9.45674 1.72859C10.4443 1.74778 11.4177 1.94653 12.3203 2.31326C13.223 2.67999 14.0366 3.20735 14.7139 3.86458C15.3912 4.5218 15.9184 5.29572 16.265 6.1412C16.6116 6.98667 16.7705 7.88677 16.7324 8.78897C16.5613 8.74647 16.3605 8.69802 16.141 8.65297C15.1368 8.44277 14.1002 8.39445 13.0779 8.51017C12.547 8.56716 12.0256 8.68246 11.5249 8.85357C11.5002 8.69782 11.4661 8.54345 11.4226 8.39117C11.3036 7.97382 11.0135 7.63637 10.7122 7.28617L10.5792 7.13232C10.4304 6.95722 10.2426 6.72602 10.1737 6.47782C10.1287 6.32437 10.1368 6.16193 10.197 6.01287C10.2639 5.85137 10.3858 5.72727 10.5243 5.63207C10.9223 5.36007 11.5723 4.77102 12.1452 4.22787C12.426 3.96097 12.6808 3.71192 12.8649 3.52917L12.8705 3.52407C11.7427 2.84612 10.4114 2.50705 9.06249 2.55422C9.17129 2.74292 9.29683 2.98262 9.40842 3.25377C9.66973 3.88787 9.89849 4.79822 9.48746 5.59807C9.11178 6.32907 8.46735 6.51947 7.96984 6.63677L7.87964 6.65802C7.4091 6.76852 7.17756 6.82292 7.01482 7.04902C6.85674 7.26747 6.89579 7.53692 7.04923 7.99507L7.08549 8.10047C7.14687 8.27982 7.21847 8.48892 7.25567 8.68527C7.30216 8.92837 7.31239 9.22587 7.15059 9.50977C7.01036 9.76991 6.78647 9.98464 6.50895 10.1252C6.29121 10.226 6.05686 10.2935 5.81523 10.3249L5.7334 10.3377C5.35399 10.3989 5.1336 10.4337 4.92716 10.636C4.76164 10.7975 4.66679 11.0678 4.61378 11.4359C4.59302 11.5867 4.57689 11.7381 4.56543 11.8898L4.55799 11.9705C4.54616 12.1432 4.52162 12.3151 4.48452 12.4848L4.4808 12.5018C5.42991 13.4578 6.69387 14.1053 8.08143 14.3463C7.90847 14.5979 7.75038 14.8571 7.60346 15.1232C5.96916 14.7731 4.51233 13.9283 3.46957 12.7259C2.4268 11.5236 1.85935 10.0343 1.85938 8.49997ZM17.5982 9.97642C17.5565 9.91486 17.4984 9.86404 17.4292 9.82878C17.36 9.79353 17.2822 9.775 17.203 9.77497H17.1955C17.159 9.77086 17.1227 9.76518 17.0867 9.75797C16.9934 9.73744 16.9007 9.71476 16.8087 9.68997L16.7203 9.66787C16.4615 9.59962 16.2008 9.53783 15.9383 9.48257C15.0385 9.29355 14.1095 9.24982 13.1932 9.35337C12.0754 9.48087 11.2208 9.82682 10.6378 10.3241C10.0519 10.8239 9.76365 11.4597 9.76365 12.1091C9.76365 12.2646 9.77667 12.4117 9.79899 12.5511C10.7754 11.7716 11.9796 11.1418 13.3103 10.6556C13.3673 10.6334 13.4285 10.6219 13.4904 10.6217C13.5522 10.6215 13.6135 10.6325 13.6707 10.6542C13.7278 10.6759 13.7796 10.7078 13.8231 10.748C13.8666 10.7883 13.9008 10.8361 13.9239 10.8885C13.9469 10.941 13.9582 10.9972 13.9572 11.0538C13.9561 11.1103 13.9428 11.1661 13.9179 11.2179C13.8929 11.2696 13.857 11.3163 13.812 11.3552C13.7671 11.3941 13.7142 11.4244 13.6563 11.4444C12.9459 11.701 12.2619 12.0147 11.6123 12.3819C10.0761 13.2013 9.11922 14.2536 8.41806 15.5354C8.36739 15.6357 8.36141 15.75 8.40139 15.8543C8.44136 15.9585 8.52415 16.0444 8.63222 16.0938C8.74029 16.1432 8.86516 16.1522 8.98036 16.1189C9.09556 16.0856 9.19206 16.0126 9.24941 15.9154C9.60649 15.2634 10.0333 14.6778 10.5959 14.1576C10.7453 14.4064 10.9274 14.6376 11.1381 14.8461C11.5695 15.2711 12.266 15.725 13.2508 15.725C13.8571 15.725 14.3611 15.583 14.774 15.3374C15.1832 15.0943 15.4789 14.7636 15.7002 14.416C16.0434 13.8805 16.2386 13.243 16.3837 12.7704C16.4209 12.6514 16.4535 12.5434 16.4851 12.4499C16.6392 12.0107 16.8449 11.588 17.0988 11.1894C17.2085 11.0134 17.3118 10.8604 17.4001 10.7287L17.4159 10.7066C17.4931 10.5918 17.5712 10.4771 17.6186 10.3895C17.654 10.3248 17.6707 10.2528 17.6671 10.1805C17.6635 10.1082 17.6398 10.038 17.5982 9.97642Z" fill="#FF6900"/>
</svg>
