<svg width="19" height="17" viewBox="0 0 19 17" fill="none" xmlns="http://www.w3.org/2000/svg">
<path d="M9.29904 11.3333C10.6164 10.2472 11.4624 9.48265 11.8369 9.03971C12.2115 8.59724 12.3988 8.1576 12.3988 7.72079C12.3988 7.29579 12.2309 6.92982 11.8951 6.62288C11.5592 6.31593 11.1589 6.16246 10.6939 6.16246C10.4227 6.16246 10.1613 6.21251 9.90968 6.31263C9.65757 6.41321 9.45403 6.55204 9.29904 6.72913C9.14405 6.55204 8.94386 6.41321 8.69847 6.31263C8.45308 6.21251 8.18831 6.16246 7.90417 6.16246C7.43921 6.16246 7.03883 6.31593 6.70303 6.62288C6.36723 6.92982 6.19932 7.29579 6.19932 7.72079C6.19932 7.9451 6.23161 8.15169 6.29619 8.34058C6.36077 8.52947 6.50284 8.75071 6.7224 9.00429C6.94196 9.25835 7.25504 9.56836 7.66161 9.93433C8.06871 10.3003 8.61452 10.7666 9.29904 11.3333ZM9.29904 15.5833C7.50379 15.1701 6.02187 14.2285 4.85327 12.7585C3.68416 11.2889 3.09961 9.6569 3.09961 7.86246V3.54163L9.29904 1.41663L15.4985 3.54163V7.86246C15.4985 9.6569 14.9142 11.2889 13.7456 12.7585C12.5765 14.2285 11.0943 15.1701 9.29904 15.5833ZM9.29904 14.0958C10.6422 13.7062 11.753 12.927 12.6312 11.7583C13.5095 10.5895 13.9486 9.29093 13.9486 7.86246V4.51558L9.29904 2.92183L4.64947 4.51558V7.86246C4.64947 9.29093 5.08859 10.5895 5.96685 11.7583C6.8451 12.927 7.95583 13.7062 9.29904 14.0958Z" fill="#FF6900"/>
</svg>
