<svg width="19" height="18" viewBox="0 0 19 18" fill="none" xmlns="http://www.w3.org/2000/svg">
<path d="M16.9232 11.1873L14.9841 14.2733C14.604 14.8863 13.8982 15.207 13.1847 15.1642H11.6334V16.5897L9.69434 13.3824L11.6334 10.1752V11.6007H13.8207L12.0988 8.85673L15.4572 7.07495L16.8534 9.29861C17.2567 9.8474 17.311 10.5815 16.9232 11.1873ZM7.14253 2.37817H11.0207C11.7808 2.37817 12.4401 2.78442 12.7581 3.36884L13.5337 4.60896L14.8755 3.89625L12.8279 7.03931L8.83339 7.10346L10.1752 6.39074L9.08159 4.6446L7.36746 7.38854L4.00125 5.60676L5.39738 3.3831C5.71538 2.79155 6.37466 2.37817 7.14253 2.37817ZM3.91593 14.2805L1.97687 11.1944C1.59681 10.5886 1.65111 9.86165 2.04668 9.31286L2.8223 8.07987L1.48047 7.36716L5.46718 7.42418L7.52259 10.5744L6.18076 9.86165L5.08713 11.6007H8.5309V15.1642H5.73865C5.37527 15.1884 5.01181 15.1184 4.68959 14.9621C4.36737 14.8059 4.09932 14.5697 3.91593 14.2805Z" fill="#FF6900"/>
</svg>
